<svg xmlns="http://www.w3.org/2000/svg" width="24" height="24" viewBox="0 0 24 24" fill="currentColor">
  <path fill-rule="evenodd" d="M 12,1.5 C 10.708333,1.5 9.4065896,1.9269989 8.4082031,2.8144531 7.4098167,3.7019073 6.75,5.0625006 6.75,6.75 v 3 c -1.6479708,0 -3,1.352029 -3,3 v 6.75 c 0,1.647971 1.3520292,3 3,3 h 10.5 c 1.647971,0 3,-1.352029 3,-3 v -6.75 c 0,-1.647971 -1.352029,-3 -3,-3 v -3 C 17.25,5.0625006 16.590183,3.7019073 15.591797,2.8144531 14.59341,1.9269989 13.291667,1.5 12,1.5 Z M 12,3 c 0.958333,0 1.90659,0.3230017 2.595703,0.9355469 C 15.284817,4.548092 15.75,5.4375007 15.75,6.75 v 3 h -7.5 v -3 C 8.25,5.4375007 8.7151833,4.548092 9.4042969,3.9355469 10.09341,3.3230017 11.041667,3 12,3 Z m -5.25,8.25 h 0.75 9 0.75 c 0.837311,0 1.5,0.662689 1.5,1.5 v 6.75 c 0,0.837311 -0.662689,1.5 -1.5,1.5 H 6.75 c -0.8373106,0 -1.5,-0.662689 -1.5,-1.5 v -6.75 c 0,-0.837311 0.6626894,-1.5 1.5,-1.5 z" clip-rule="evenodd" />
</svg>
