<svg xmlns="http://www.w3.org/2000/svg" width="24" height="24" viewBox="0 0 24 24" fill="currentColor">
  <path fill-rule="evenodd" d="m 7.5,2.25 c -1.6479708,0 -3,1.3520292 -3,3 v 13.5 c 0,1.647971 1.3520292,3 3,3 h 6 c 1.647971,0 3,-1.352029 3,-3 V 15 A 0.75,0.75 0 0 0 15.75,14.25 0.75,0.75 0 0 0 15,15 v 3.75 c 0,0.837311 -0.662689,1.5 -1.5,1.5 h -6 C 6.6626894,20.25 6,19.587311 6,18.75 V 5.25 C 6,4.4126894 6.6626894,3.75 7.5,3.75 h 6 c 0.837311,0 1.5,0.6626894 1.5,1.5 V 9 A 0.75,0.75 0 0 0 15.75,9.75 0.75,0.75 0 0 0 16.5,9 V 5.25 c 0,-1.6479708 -1.352029,-3 -3,-3 z m 11.25,6 a 0.75,0.75 0 0 0 -0.53125,0.21875 0.75,0.75 0 0 0 0,1.0625 L 19.9375,11.25 H 9 A 0.75,0.75 0 0 0 8.25,12 0.75,0.75 0 0 0 9,12.75 h 10.9375 l -1.71875,1.71875 a 0.75,0.75 0 0 0 0,1.0625 0.75,0.75 0 0 0 1.0625,0 l 3,-3 A 0.75,0.75 0 0 0 22.5,12 0.75,0.75 0 0 0 22.28125,11.46875 l -3,-3 A 0.75,0.75 0 0 0 18.75,8.25 Z" clip-rule="evenodd" />
</svg>
