<?xml version="1.0" encoding="UTF-8" standalone="no"?>
<svg
   width="24"
   height="24"
   viewBox="0 0 24 24"
   version="1.1"
   id="svg1"
   xmlns="http://www.w3.org/2000/svg"
   xmlns:svg="http://www.w3.org/2000/svg">
  <defs
     id="defs1" />
  <path
     style="baseline-shift:baseline;display:inline;overflow:visible;vector-effect:none;fill:currentColor;stroke-linecap:round;stroke-linejoin:round;enable-background:accumulate;stop-color:#000000;stop-opacity:1;opacity:1"
     d="M 11.248047,2.2792969 C 9.3660374,2.4742775 7.6050742,3.5395558 6.4296875,5.3671875 L 3.53125,2.46875 a 0.75,0.75 0 0 0 -1.0625,0 0.75,0.75 0 0 0 0,1.0625 L 6,7.0605469 16.244141,17.304687 20.46875,21.53125 a 0.75,0.75 0 0 0 1.0625,0 0.75,0.75 0 0 0 0,-1.0625 l -3.324219,-3.322266 c 0.793294,-0.205684 1.593785,-0.386378 2.363281,-0.669922 a 0.750075,0.750075 0 0 0 0.296875,-1.207031 C 19.501286,13.756104 18.747247,11.790615 18.75,9.7519531 A 0.750075,0.750075 0 0 0 18.75,9.75 V 9 C 18.752633,5.426235 16.255648,3.0067214 13.421875,2.3964844 12.713432,2.2439251 11.976281,2.2038501 11.248047,2.2792969 Z m 0.160156,1.4746094 c 0.564405,-0.050349 1.137716,-0.011121 1.697266,0.109375 C 15.343669,4.3452652 17.25213,6.1082612 17.25,9 v 0.75 c -0.0023,2.029253 0.753868,3.928765 1.917969,5.568359 -0.716962,0.232442 -1.435526,0.455411 -2.171875,0.617188 L 7.4882812,6.4277344 C 8.4108567,4.7689324 9.8556254,3.8924065 11.408203,3.7539063 Z M 6.0273437,9.4804688 A 0.75,0.75 0 0 0 5.2382812,10.191406 c -0.097995,1.884751 -0.8420839,3.677837 -2.1074218,5.078125 a 0.750075,0.750075 0 0 0 0.2988281,1.207031 c 1.5737953,0.57953 3.2179927,0.919833 4.875,1.169922 -0.011287,0.118387 -0.054189,0.229414 -0.054687,0.34961 A 0.750075,0.750075 0 0 0 8.25,18 c -0.00157,2.018623 1.4708077,3.399389 3.082031,3.691406 1.611224,0.292017 3.472723,-0.484222 4.179688,-2.375 a 0.75,0.75 0 0 0 -0.439453,-0.966797 0.75,0.75 0 0 0 -0.964844,0.441407 c -0.463773,1.24036 -1.50607,1.607336 -2.507813,1.425781 C 10.598431,20.035344 9.7499256,19.324743 9.75,18.001953 c 0,-7.46e-4 -6e-7,-0.0012 0,-0.002 3.013e-4,-0.05277 0.019997,-0.09564 0.023437,-0.146484 1.0794005,0.09698 2.1608195,0.17025 3.2441405,0.125 a 0.75,0.75 0 0 0 0.71875,-0.779297 0.75,0.75 0 0 0 -0.78125,-0.71875 c -1.243128,0.05193 -2.4872,0.0048 -3.7226561,-0.142578 C 7.7415211,16.160328 6.2947131,15.749529 4.8671875,15.289063 5.9159043,13.799652 6.64093,12.104343 6.7363281,10.269531 A 0.75,0.75 0 0 0 6.0273437,9.4804688 Z"
     id="path1" />
</svg>
