<?xml version="1.0" encoding="UTF-8" standalone="no"?>
<svg
   width="24"
   height="24"
   viewBox="0 0 24 24"
   version="1.1"
   id="svg1"
   xmlns="http://www.w3.org/2000/svg"
   xmlns:svg="http://www.w3.org/2000/svg">
  <defs
     id="defs1" />
  <path
     style="baseline-shift:baseline;display:inline;overflow:visible;vector-effect:none;fill:currentColor;stroke-linecap:round;stroke-linejoin:round;enable-background:accumulate;stop-color:#000000;stop-opacity:1;opacity:1"
     d="m 5.25,3 c -1.6479708,0 -3,1.3520292 -3,3 v 12 c 0,1.647971 1.3520292,3 3,3 h 13.5 c 1.647971,0 3,-1.352029 3,-3 V 6 c 0,-1.6479708 -1.352029,-3 -3,-3 z m 0,1.5 h 13.5 c 0.837311,0 1.5,0.6626894 1.5,1.5 v 12 c 0,0.837311 -0.662689,1.5 -1.5,1.5 H 5.25 C 4.4126894,19.5 3.75,18.837311 3.75,18 V 6 c 0,-0.8373106 0.6626894,-1.5 1.5,-1.5 z M 7.1992187,6.9003906 A 0.75,0.75 0 0 0 6.1503906,7.0507812 0.75,0.75 0 0 0 6.3007812,8.0996094 L 8.5019531,9.75 6.3007812,11.400391 a 0.75,0.75 0 0 0 -0.1503906,1.048828 0.75,0.75 0 0 0 1.0488281,0.15039 l 3.0000003,-2.25 a 0.750075,0.750075 0 0 0 0,-1.1992184 z M 11.25,11.25 A 0.75,0.75 0 0 0 10.5,12 a 0.75,0.75 0 0 0 0.75,0.75 h 3 A 0.75,0.75 0 0 0 15,12 0.75,0.75 0 0 0 14.25,11.25 Z"
     id="path1" />
</svg>
