<svg xmlns="http://www.w3.org/2000/svg" width="24" height="24" viewBox="0 0 24 24" fill="currentColor">
  <path d="M12.787 3.004c4.113-.142 7.93 1.543 9.963 5.496 1.25 2.43.823 5.586-.5 7.996-1.326 2.414-3.5 4.254-5.75 5.254a.75.75 0 0 1-.614-1.37c1.963-.873 3.878-2.476 5.04-4.59 1.162-2.112 1.441-4.58.5-6.412-1.559-3.032-4.68-4.464-8.426-4.378C9.152 5.086 5.236 7.044 3 10.5a.75.75 0 0 1-1.28-.786c2.544-3.93 6.884-6.224 11.067-6.71ZM4.75 13a.75.75 0 0 1 .75.75c0 2.024.683 3.591 1.814 4.682C8.442 19.517 10.086 20 12 20a.75.75 0 0 1 0 1.5c-2.164 0-4.192-.546-5.688-1.97C4.82 18.113 4 16.226 4 13.75a.75.75 0 0 1 .75-.75Z" />
</svg>
