<?xml version="1.0" encoding="UTF-8" standalone="no"?>
<svg
   width="24"
   height="24"
   viewBox="0 0 24 24"
   version="1.1"
   xmlns="http://www.w3.org/2000/svg">
  <defs />
  <!-- wifi with diagonal slash -->
  <path
     style="fill:currentColor"
     d="M 3.63,3.63 A 1,1 0 0 0 2.22,5.04 l 2.13,2.13 C 2.95,8.53 1.81,10.21 1.07,11.4 a 1,1 0 0 0 1.65,1.13 c 0.59,-0.95 1.52,-2.32 2.73,-3.44 L 7.07,10.7 A 10.09,10.09 0 0 0 4.62,13.83 a 1,1 0 0 0 1.58,1.22 8.11,8.11 0 0 1 1.89,-2.38 l 1.62,1.62 A 5.67,5.67 0 0 0 7.63,16.5 a 1,1 0 0 0 1.5,1.32 3.69,3.69 0 0 1 2.02,-1.62 l 2.5,2.5 A 2,2 0 0 0 12,22 a 2,2 0 0 0 2,-2 2,2 0 0 0 -0.35,-1.12 l 5.39,5.39 a 1,1 0 0 0 1.41,-1.41 Z M 12,18 a 2,2 0 1 1 0,4 2,2 0 0 1 0,-4 Z M 22.93,11.4 A 17.89,17.89 0 0 0 12,7 a 17.55,17.55 0 0 0 -2.44,0.17 l 1.64,1.64 c 0.26,-0.02 0.53,-0.03 0.8,-0.03 a 15.93,15.93 0 0 1 9.28,3.77 1,1 0 0 0 1.65,-1.13 Z M 19.38,13.83 A 12.08,12.08 0 0 0 12,10.78 c -0.28,0 -0.55,0.01 -0.82,0.04 l 2.02,2.02 a 10.14,10.14 0 0 1 4.6,2.21 1,1 0 0 0 1.58,-1.22 Z" />
</svg>
