<svg xmlns="http://www.w3.org/2000/svg" width="24" height="24" viewBox="0 0 24 24" fill="currentColor">
  <path fill-rule="evenodd" d="M1.371 8.143c5.858-5.857 15.356-5.857 21.213 0a.75.75 0 0 1-1.06 1.06 13.5 13.5 0 0 0-19.092 0 .75.75 0 0 1-1.06-1.06Zm4.243 4.243a9 9 0 0 1 12.728 0 .75.75 0 1 1-1.06 1.06 7.5 7.5 0 0 0-10.607 0 .75.75 0 0 1-1.061-1.06Zm4.243 4.243a3 3 0 0 1 4.243 0 .75.75 0 0 1-1.06 1.06 1.5 1.5 0 0 0-2.122 0 .75.75 0 0 1-1.06-1.06ZM12 18a.75.75 0 0 1 .53.22l.53.53-.53.53a.75.75 0 0 1-1.06-1.06l.53-.22Z" clip-rule="evenodd" />
</svg>
