<?xml version="1.0" encoding="UTF-8" standalone="no"?>
<svg
   width="24"
   height="24"
   viewBox="0 0 24 24"
   version="1.1"
   id="svg2"
   xmlns="http://www.w3.org/2000/svg"
   xmlns:svg="http://www.w3.org/2000/svg">
  <defs
     id="defs2" />
  <g
     fill="none"
     stroke="currentColor"
     stroke-linecap="round"
     stroke-linejoin="round"
     stroke-width="2"
     id="g2">
    <path
       style="baseline-shift:baseline;display:inline;overflow:visible;vector-effect:none;fill:#000000;stroke:none;stroke-linecap:butt;stroke-linejoin:miter;enable-background:accumulate;stop-color:#000000;stop-opacity:1;opacity:1"
       d="m 6,10 c -1.6450096,0 -3,1.35499 -3,3 v 8 a 1,1 0 0 0 1,1 1,1 0 0 0 1,-1 v -8 c 0,-0.564129 0.4358706,-1 1,-1 h 12 c 0.564129,0 1,0.435871 1,1 v 8 a 1,1 0 0 0 1,1 1,1 0 0 0 1,-1 v -8 c 0,-1.64501 -1.35499,-3 -3,-3 z"
       id="path1" />
    <path
       style="baseline-shift:baseline;display:inline;overflow:visible;vector-effect:none;fill:#000000;stroke:none;stroke-linecap:butt;stroke-linejoin:miter;enable-background:accumulate;stop-color:#000000;stop-opacity:1;opacity:1"
       d="M 7,3 A 1,1 0 0 0 6,4 1,1 0 0 0 7,5 h 0.00977 a 1,1 0 0 0 1,-1 1,1 0 0 0 -1,-1 z m 5,0 a 1,1 0 0 0 -1,1 1,1 0 0 0 1,1 h 0.0098 a 1,1 0 0 0 1,-1 1,1 0 0 0 -1,-1 z m 5,0 a 1,1 0 0 0 -1,1 1,1 0 0 0 1,1 h 0.0098 a 1,1 0 0 0 1,-1 1,1 0 0 0 -1,-1 z M 7,7 A 1,1 0 0 0 6,8 v 3 a 1,1 0 0 0 1,1 1,1 0 0 0 1,-1 V 8 A 1,1 0 0 0 7,7 Z m 5,0 a 1,1 0 0 0 -1,1 v 3 a 1,1 0 0 0 1,1 1,1 0 0 0 1,-1 V 8 A 1,1 0 0 0 12,7 Z m 5,0 a 1,1 0 0 0 -1,1 v 3 a 1,1 0 0 0 1,1 1,1 0 0 0 1,-1 V 8 A 1,1 0 0 0 17,7 Z M 6,14 c -0.9722222,0 -1.7226354,0.346858 -2.1875,0.71875 -0.4648646,0.371892 -0.7070312,0.833984 -0.7070312,0.833984 a 1,1 0 0 0 0.4472656,1.341797 1,1 0 0 0 1.3417968,-0.447265 c 0,0 0.00783,-0.03791 0.1679688,-0.166016 C 5.2226354,16.153142 5.4722222,16 6,16 6.3055556,16 6.75,16.28125 7.375,16.78125 8,17.28125 8.8055556,18 10,18 11.194444,18 12,17.28125 12.625,16.78125 13.25,16.28125 13.694444,16 14,16 c 0.305556,0 0.75,0.28125 1.375,0.78125 C 16,17.28125 16.805556,18 18,18 c 0.972222,0 1.722635,-0.346858 2.1875,-0.71875 0.464865,-0.371892 0.707031,-0.833984 0.707031,-0.833984 a 1,1 0 0 0 -0.447265,-1.341797 1,1 0 0 0 -1.341797,0.447265 c 0,0 -0.0078,0.03791 -0.167969,0.166016 C 18.777365,15.846858 18.527778,16 18,16 17.694444,16 17.25,15.71875 16.625,15.21875 16,14.71875 15.194444,14 14,14 12.805556,14 12,14.71875 11.375,15.21875 10.75,15.71875 10.305556,16 10,16 9.6944444,16 9.25,15.71875 8.625,15.21875 8,14.71875 7.1944444,14 6,14 Z m -4,6 a 1,1 0 0 0 -1,1 1,1 0 0 0 1,1 h 20 a 1,1 0 0 0 1,-1 1,1 0 0 0 -1,-1 z"
       id="path2" />
  </g>
</svg>
