<svg xmlns="http://www.w3.org/2000/svg" width="24" height="24" viewBox="0 0 24 24" fill="currentColor">
  <path fill-rule="evenodd" d="M 8.28125,3.890625 C 5.9372577,4.064734 4.0637925,5.9389504 3.890625,8.2832031 3.8733881,8.5065832 3.8578109,8.7311641 3.84375,8.953125 A 0.75,0.75 0 0 0 4.5449219,9.7480469 0.75,0.75 0 0 0 5.3398437,9.046875 c 0.013858,-0.2187511 0.030237,-0.4350697 0.046875,-0.6503906 a 0.750075,0.750075 0 0 0 0,-0.00391 C 5.5059829,6.7780411 6.7780411,5.5059829 8.3925781,5.3867187 a 0.750075,0.750075 0 0 0 0.00195,0 c 2.4003087,-0.181086 4.8106287,-0.181086 7.2109377,0 a 0.750075,0.750075 0 0 0 0.002,0 c 1.614537,0.1192642 2.886595,1.3913224 3.005859,3.0058594 a 0.750075,0.750075 0 0 0 0,0.00195 c 0.04321,0.5678034 0.04186,1.1474259 0.06445,1.7207027 L 17.03125,8.46875 a 0.75,0.75 0 0 0 -1.0625,0 0.75,0.75 0 0 0 0,1.0625 l 3,3 A 0.75,0.75 0 0 0 19.5,12.75 0.75,0.75 0 0 0 20.03125,12.53125 l 3,-3 a 0.75,0.75 0 0 0 0,-1.0625 0.75,0.75 0 0 0 -1.0625,0 l -1.785156,1.785156 C 20.160346,9.5965708 20.158879,8.9340927 20.109375,8.2832031 V 8.28125 C 19.935314,5.9379066 18.062093,4.0646858 15.71875,3.890625 c -2.47478,-0.1867045 -4.960761,-0.1866064 -7.4355469,0 z M 4.5,11.25 a 0.75,0.75 0 0 0 -0.21875,0.21875 0.75,0.75 0 0 0 -0.3125,0 l -3,3 a 0.75,0.75 0 0 0 0,1.0625 0.75,0.75 0 0 0 1.0625,0 l 1.7851563,-1.785156 c 0.02327,0.657986 0.02464,1.321129 0.074219,1.972656 0.1740608,2.343343 2.0472816,4.216564 4.390625,4.390625 2.475444,0.186839 4.962056,0.186839 7.4375,0 2.342694,-0.174013 4.215672,-2.046238 4.390625,-4.388672 v -0.0039 c 0.01724,-0.22338 0.03281,-0.447961 0.04687,-0.669922 a 0.75,0.75 0 0 0 -0.701172,-0.794922 0.75,0.75 0 0 0 -0.794922,0.701172 c -0.01386,0.218751 -0.03024,0.43507 -0.04687,0.650391 a 0.750075,0.750075 0 0 0 0,0.0039 c -0.119264,1.614537 -1.391322,2.886595 -3.005859,3.005859 a 0.750075,0.750075 0 0 0 -0.002,0 c -2.400288,0.181167 -4.81065,0.181167 -7.2109377,0 a 0.750075,0.750075 0 0 0 -0.00195,0 C 6.7780411,18.494017 5.5059829,17.221959 5.3867187,15.607422 a 0.750075,0.750075 0 0 0 0,-0.002 C 5.3435112,15.037665 5.3448608,14.458043 5.3222656,13.884766 L 6.96875,15.53125 a 0.75,0.75 0 0 0 1.0625,0 0.75,0.75 0 0 0 0,-1.0625 l -3,-3 a 0.75,0.75 0 0 0 -0.3125,0 A 0.75,0.75 0 0 0 4.5,11.25 Z" clip-rule="evenodd" />
</svg>
