<?xml version="1.0" encoding="UTF-8" standalone="no"?>
<svg
   width="24"
   height="24"
   viewBox="0 0 24 24"
   version="1.1"
   id="svg1"
   xmlns="http://www.w3.org/2000/svg"
   xmlns:svg="http://www.w3.org/2000/svg">
  <defs
     id="defs1" />
  <path
     style="baseline-shift:baseline;display:inline;overflow:visible;vector-effect:none;fill:currentColor;stroke-linecap:round;stroke-linejoin:round;enable-background:accumulate;stop-color:#000000;stop-opacity:1;opacity:1"
     d="m 19.294922,1.5292969 -10.5000001,3 A 0.750075,0.750075 0 0 0 8.25,5.25 v 10.302734 c -1.388e-4,0.67304 -0.4407365,1.256545 -1.0878906,1.441407 l -2.3105469,0.660156 a 0.750075,0.750075 0 0 0 -0.00977,0.0039 C 4.0966824,17.883362 3.5373612,18.382787 3.2578125,18.972656 2.9782638,19.562525 2.9569691,20.214287 3.125,20.802734 c 0.1680309,0.588448 0.5312042,1.131062 1.0800781,1.484375 0.548874,0.353314 1.2854516,0.481541 2.0371094,0.279297 a 0.750075,0.750075 0 0 0 0.011719,-0.002 L 7.5742187,22.1875 C 8.858713,21.82058 9.7497246,20.638607 9.75,19.302734 v -3.75 -5.9882809 l 9,-2.5703125 v 5.5585934 c -1.39e-4,0.67304 -0.440736,1.256545 -1.087891,1.441407 l -2.310546,0.660156 0.01172,-0.002 c -0.771275,0.207522 -1.356266,0.704608 -1.648437,1.302734 -0.292172,0.598126 -0.313603,1.264351 -0.142578,1.863281 0.171024,0.598931 0.541515,1.1522 1.105468,1.50586 0.563954,0.35366 1.32333,0.467363 2.087891,0.236328 L 18.074219,19.1875 C 19.358713,18.82058 20.249725,17.638607 20.25,16.302734 v -3.75 V 2.25 A 0.750075,0.750075 0 0 0 19.294922,1.5292969 Z M 18.75,3.2441406 v 2.1914063 l -9,2.5703125 V 5.8164062 Z m 0,11.7285154 v 1.330078 c -1.39e-4,0.67304 -0.440736,1.256545 -1.087891,1.441407 l -1.320312,0.376953 a 0.750075,0.750075 0 0 0 -0.01172,0.0039 c -0.403803,0.122021 -0.646409,0.05884 -0.855469,-0.07227 -0.209059,-0.131103 -0.381896,-0.369682 -0.460937,-0.646484 -0.07904,-0.276802 -0.05753,-0.571241 0.05078,-0.792969 0.108309,-0.221727 0.280151,-0.404069 0.6875,-0.513672 a 0.750075,0.750075 0 0 0 0.01172,-0.002 L 18.074219,15.4375 c 0.276557,-0.079 0.440652,-0.316934 0.675781,-0.464844 z m -10.5,3 v 1.330078 c -1.388e-4,0.67304 -0.4407365,1.256545 -1.0878906,1.441407 l -1.3125,0.375 c -0.3882411,0.103268 -0.629746,0.03967 -0.8339844,-0.0918 -0.2051836,-0.132078 -0.3722374,-0.367129 -0.4492188,-0.636719 -0.076981,-0.26959 -0.057628,-0.554882 0.046875,-0.775391 0.1043125,-0.220107 0.273637,-0.404208 0.6601563,-0.521484 h 0.00195 L 7.5742187,18.4375 C 7.8507756,18.358501 8.0148706,18.120566 8.25,17.972656 Z"
     id="path1" />
</svg>
