<?xml version="1.0" encoding="UTF-8" standalone="no"?>
<svg
   width="24"
   height="24"
   viewBox="0 0 24 24"
   version="1.1"
   id="svg1"
   xmlns="http://www.w3.org/2000/svg"
   xmlns:svg="http://www.w3.org/2000/svg">
  <defs
     id="defs1" />
  <path
     style="baseline-shift:baseline;display:inline;overflow:visible;vector-effect:none;fill:currentColor;stroke-linecap:round;stroke-linejoin:round;enable-background:accumulate;stop-color:#000000;stop-opacity:1;opacity:1"
     d="M 8.25,4.5 A 0.75,0.75 0 0 0 7.5,5.25 v 13.5 A 0.75,0.75 0 0 0 8.25,19.5 0.75,0.75 0 0 0 9,18.75 V 5.25 A 0.75,0.75 0 0 0 8.25,4.5 Z m 7.5,0 A 0.75,0.75 0 0 0 15,5.25 v 13.5 a 0.75,0.75 0 0 0 0.75,0.75 0.75,0.75 0 0 0 0.75,-0.75 V 5.25 A 0.75,0.75 0 0 0 15.75,4.5 Z"
     id="path1" />
</svg>
