<?xml version="1.0" encoding="UTF-8" standalone="no"?>
<svg
   width="24"
   height="24"
   viewBox="0 0 24 24"
   version="1.1"
   id="svg1"
   xmlns="http://www.w3.org/2000/svg"
   xmlns:svg="http://www.w3.org/2000/svg">
  <defs
     id="defs1" />
  <path
     style="baseline-shift:baseline;display:inline;overflow:visible;vector-effect:none;fill:currentColor;stroke-linecap:round;stroke-linejoin:round;enable-background:accumulate;stop-color:#000000;stop-opacity:1;opacity:1"
     d="M 10.148438,6.8242187 C 9.828312,6.8138853 9.5000772,6.8864603 9.1953125,7.0605469 L 2.0878906,11.121094 c -1.22848703,0.701331 -1.22848703,2.556481 0,3.257812 l 7.1074219,4.060547 C 10.414335,19.136734 12,18.216056 12,16.8125 v -2.341797 l 6.945312,3.96875 C 20.164335,19.136734 21.75,18.216056 21.75,16.8125 V 8.6894531 C 21.750171,7.285529 20.164371,6.3642005 18.945312,7.0605469 L 12,11.029297 V 8.6894531 C 12.000128,7.63651 11.108814,6.8552191 10.148438,6.8242187 Z M 9.9394531,8.3632813 C 10.220476,8.2027564 10.500039,8.3658143 10.5,8.6894531 V 16.8125 c 0,0.322444 -0.279569,0.484938 -0.5605469,0.324219 L 2.8320313,13.076172 a 0.750075,0.750075 0 0 0 -0.00195,0 c -0.2841534,-0.162221 -0.2841534,-0.490123 0,-0.652344 a 0.750075,0.750075 0 0 0 0.00195,0 z m 9.7499999,0 C 19.970476,8.2027564 20.250039,8.3658143 20.25,8.6894531 V 16.8125 c 0,0.322444 -0.279569,0.484938 -0.560547,0.324219 l -7.107422,-4.060547 a 0.750075,0.750075 0 0 0 -0.002,0 c -0.284153,-0.162221 -0.284153,-0.490123 0,-0.652344 a 0.750075,0.750075 0 0 0 0.002,0 z"
     id="path1" />
</svg>
