<?xml version="1.0" encoding="UTF-8" standalone="no"?>
<svg
   width="24"
   height="24"
   viewBox="0 0 24 24"
   version="1.1"
   id="svg1"
   xmlns="http://www.w3.org/2000/svg"
   xmlns:svg="http://www.w3.org/2000/svg">
  <defs
     id="defs1" />
  <path
     style="baseline-shift:baseline;display:inline;overflow:visible;vector-effect:none;fill:currentColor;stroke-linecap:round;stroke-linejoin:round;enable-background:accumulate;stop-color:#000000;stop-opacity:1;opacity:1"
     d="M 8.7089844,1.5566406 C 4.7982838,3.187119 2.2487687,7.0130155 2.25,11.25 c 0,5.790106 4.7098936,10.5 10.5,10.5 4.236984,0.0012 8.062881,-2.548284 9.693359,-6.458984 a 0.75,0.75 0 0 0 0,-0.576172 0.75,0.75 0 0 0 -0.201172,-0.203125 0.75,0.75 0 0 0 -0.203125,-0.201172 0.75,0.75 0 0 0 -0.576171,0 C 20.366178,14.768152 19.190304,15.002054 18.001953,15 A 0.750075,0.750075 0 0 0 18,15 C 13.020554,15 9,10.979446 9,6 9,4.77 9.2447602,3.6027117 9.6894531,2.5371094 A 0.750075,0.750075 0 0 0 8.7089844,1.5566406 Z M 7.9492187,3.7480469 C 7.7805595,4.4953341 7.5,5.2031186 7.5,6 c 0,5.790106 4.709894,10.5 10.5,10.5 0.772829,0.0012 1.501317,-0.28171 2.251953,-0.449219 C 18.616415,18.602263 15.85263,20.250902 12.75,20.25 c -4.9794462,0 -9,-4.020554 -9,-9 C 3.7490984,8.1473704 5.397737,5.3835848 7.9492187,3.7480469 Z"
     id="path1" />
</svg>
