<?xml version="1.0" encoding="UTF-8" standalone="no"?>
<svg
   width="24"
   height="24"
   viewBox="0 0 24 24"
   version="1.1"
   id="svg2"
   xmlns="http://www.w3.org/2000/svg"
   xmlns:svg="http://www.w3.org/2000/svg">
  <defs
     id="defs2" />
  <g
     fill="none"
     stroke="currentColor"
     stroke-linecap="round"
     stroke-linejoin="round"
     stroke-width="2"
     id="g2">
    <path
       style="baseline-shift:baseline;display:inline;overflow:visible;vector-effect:none;fill:#000000;stroke:none;stroke-linecap:butt;stroke-linejoin:miter;enable-background:accumulate;stop-color:#000000;stop-opacity:1;opacity:1"
       d="M 19.107422,1.0058594 A 1.0001,1.0001 0 0 0 18.220703,1.3730469 C 17.275951,2.544539 16.584568,3.1348749 15.390625,3.6503906 14.196682,4.1659063 12.448567,4.5696503 9.6113281,5.1171875 l 0.019531,-0.00195 C 4.9204319,5.9199591 2.6860693,9.9606411 3.0078125,13.6875 3.3294616,17.413268 6.223851,21.012358 11,21 c 0.0014,-4e-6 0.0025,4e-6 0.0039,0 7.87e-4,0 0.0012,-0.002 0.002,-0.002 C 16.798057,20.9945 22,16.077202 22,10 22,6.0054799 20.905264,3.5742006 19.894531,1.5527344 A 1.0001,1.0001 0 0 0 19.107422,1.0058594 Z M 18.660156,3.7734375 C 19.384555,5.3808055 20,7.121753 20,10 c 0,4.920606 -4.354713,9 -9,9 a 1,1 0 0 0 -0.002,0.002 1,1 0 0 0 -0.002,-0.002 C 7.1864206,19.011541 5.2495569,16.383702 5.0019531,13.515625 4.7543494,10.647548 6.2134661,7.7274865 9.96875,7.0859375 a 1.0001,1.0001 0 0 0 0.021484,-0.00391 C 12.852996,6.5295685 14.702537,6.1258124 16.183594,5.4863281 17.159053,5.0651484 17.931586,4.4658265 18.660156,3.7734375 Z"
       id="path1" />
    <path
       style="baseline-shift:baseline;display:inline;overflow:visible;vector-effect:none;fill:#000000;stroke:none;stroke-linecap:butt;stroke-linejoin:miter;enable-background:accumulate;stop-color:#000000;stop-opacity:1;opacity:1"
       d="m 13,11 a 1,1 0 0 0 -0.707031,0.292969 C 11.523957,12.061981 9.0385019,13.592344 6.8847656,14.019531 3.2664167,14.73648 1,17.588889 1,21 a 1,1 0 0 0 1,1 1,1 0 0 0 1,-1 c 0,-2.588889 1.4317864,-4.45648 4.2734375,-5.019531 a 1.0001,1.0001 0 0 0 0.00195,0 c 2.6862637,-0.532813 5.2006524,-2.04245 6.4316404,-3.273438 a 1,1 0 0 0 0,-1.414062 A 1,1 0 0 0 13,11 Z"
       id="path2" />
  </g>
</svg>
