<?xml version="1.0" encoding="UTF-8" standalone="no"?>
<svg
   width="1em"
   height="1em"
   viewBox="0 0 24 24"
   version="1.1"
   id="svg1"
   xmlns="http://www.w3.org/2000/svg"
   xmlns:svg="http://www.w3.org/2000/svg">
  <defs
     id="defs1" />
  <path
     style="baseline-shift:baseline;display:inline;overflow:visible;vector-effect:none;fill:currentColor;stroke-linecap:round;stroke-linejoin:round;enable-background:accumulate;stop-color:#000000;stop-opacity:1;opacity:1"
     d="m 20.001953,1.4707031 c -0.676164,-0.039774 -1.407839,0.2242458 -1.982422,0.7988282 a 0.750075,0.750075 0 0 0 -0.002,0 l -1.685547,1.6875 L 3.6503906,16.636719 a 0.750075,0.750075 0 0 0 0,0.002 C 3.0339851,17.255439 2.5808467,18.01583 2.3320313,18.851562 L 1.53125,21.535156 a 0.750075,0.750075 0 0 0 0.9335938,0.933594 l 2.6835937,-0.800781 c 0.8357322,-0.248816 1.5961235,-0.701954 2.2128906,-1.31836 a 0.750075,0.750075 0 0 0 0.00195,0 L 21.730469,5.9804687 C 22.305051,5.4058864 22.569071,4.6742113 22.529297,3.9980469 22.489522,3.3218825 22.17982,2.7188823 21.730469,2.2695313 21.281118,1.8201802 20.678118,1.5104776 20.001953,1.4707031 Z m -0.08789,1.4960938 c 0.263086,0.015476 0.542211,0.1496323 0.75586,0.3632812 0.213649,0.2136489 0.347805,0.492774 0.363281,0.7558594 0.01548,0.2630854 -0.05386,0.5245671 -0.363281,0.8339844 l -1.15625,1.15625 -1.589844,-1.5898438 1.15625,-1.15625 C 19.389495,3.0206609 19.650977,2.9513212 19.914062,2.9667969 Z M 16.861328,5.5488281 18.451172,7.1386719 6.3007812,19.289062 c -0.4403685,0.439711 -0.983623,0.763829 -1.5800781,0.941407 l -1.3554687,0.404297 0.4042969,-1.355469 c 0.1775775,-0.596455 0.5016954,-1.13971 0.9414062,-1.580078 v -0.002 z"
     id="path1" />
</svg>
