<?xml version="1.0" encoding="UTF-8" standalone="no"?>
<svg
   width="24"
   height="24"
   viewBox="0 0 24 24"
   version="1.1"
   id="svg1"
   xmlns="http://www.w3.org/2000/svg"
   xmlns:svg="http://www.w3.org/2000/svg">
  <defs
     id="defs1" />
  <path
     style="baseline-shift:baseline;display:inline;overflow:visible;vector-effect:none;fill:currentColor;stroke-linecap:round;stroke-linejoin:round;enable-background:accumulate;stop-color:#000000;stop-opacity:1;opacity:1"
     d="m 3.75,6.75 c -1.6479708,0 -3,1.3520292 -3,3 v 6 c 0,1.647971 1.3520292,3 3,3 h 15 c 1.647971,0 3,-1.352029 3,-3 v -0.15625 c 0.82627,-0.194815 1.5,-0.837485 1.5,-1.71875 v -2.25 c 0,-0.881265 -0.67373,-1.523935 -1.5,-1.71875 V 9.75 c 0,-1.6479708 -1.352029,-3 -3,-3 z m 0,1.5 h 15 c 0.837311,0 1.5,0.6626894 1.5,1.5 v 0.75 4.5 0.75 c 0,0.837311 -0.662689,1.5 -1.5,1.5 h -15 c -0.8373106,0 -1.5,-0.662689 -1.5,-1.5 v -6 c 0,-0.8373106 0.6626894,-1.5 1.5,-1.5 z M 4.5,9.75 A 0.750075,0.750075 0 0 0 3.75,10.5 V 15 A 0.750075,0.750075 0 0 0 4.5,15.75 H 18 A 0.750075,0.750075 0 0 0 18.75,15 V 10.5 A 0.750075,0.750075 0 0 0 18,9.75 Z m 0.75,1.5 h 12 v 3 h -12 z"
     id="path1" />
</svg>
