<svg xmlns="http://www.w3.org/2000/svg" width="24" height="24" viewBox="0 0 24 24" fill="currentColor">
  <path fill-rule="evenodd" d="M 12,2.25 A 0.75,0.75 0 0 0 11.25,3 v 9 A 0.75,0.75 0 0 0 12,12.75 0.75,0.75 0 0 0 12.75,12 V 3 A 0.75,0.75 0 0 0 12,2.25 Z M 5.6367187,4.8867187 a 0.75,0.75 0 0 0 -0.53125,0.21875 C 2.0567433,8.1542316 1.5901121,12.346029 2.9921875,15.730469 4.3942629,19.114908 7.6888996,21.75 12,21.75 c 4.3111,0 7.605737,-2.635092 9.007812,-6.019531 1.402076,-3.38444 0.935445,-7.5762374 -2.113281,-10.6250003 a 0.75,0.75 0 0 0 -1.060547,0 0.75,0.75 0 0 0 0,1.0605469 c 2.621299,2.6213312 2.980115,6.1104654 1.78711,8.9902344 C 18.428089,18.036019 15.706602,20.25 12,20.25 8.2933976,20.25 5.5719113,18.036019 4.3789062,15.15625 3.1859012,12.276481 3.5447166,8.7873468 6.1660156,6.1660156 a 0.75,0.75 0 0 0 0,-1.0605469 0.75,0.75 0 0 0 -0.5292969,-0.21875 z" clip-rule="evenodd" />
</svg>
