<?xml version="1.0" encoding="UTF-8" standalone="no"?>
<svg
   width="24"
   height="24"
   viewBox="0 0 24 24"
   version="1.1"
   id="svg1"
   xmlns="http://www.w3.org/2000/svg"
   xmlns:svg="http://www.w3.org/2000/svg">
  <defs
     id="defs1" />
  <path
     style="baseline-shift:baseline;display:inline;overflow:visible;vector-effect:none;fill:currentColor;stroke-linecap:round;stroke-linejoin:round;enable-background:accumulate;stop-color:#000000;stop-opacity:1;opacity:1"
     d="M 6.3300781,3.7890625 C 5.3772603,3.8308926 4.5,4.6086206 4.5,5.6523437 V 18.347656 c -2.102e-4,1.391737 1.5597272,2.313086 2.7792969,1.642578 L 18.818359,13.642578 c 1.261395,-0.692988 1.261395,-2.592168 0,-3.285156 L 7.2792969,4.0097656 a 0.750075,0.750075 0 0 0 -0.00195,0 C 6.9724968,3.842303 6.6476841,3.7751191 6.3300781,3.7890625 Z M 6.5546875,5.3242187 18.095703,11.671875 c 0.294097,0.161571 0.294097,0.494679 0,0.65625 L 6.5566406,18.675781 C 6.276568,18.829763 5.9999517,18.667267 6,18.347656 V 5.6523437 C 6,5.3328088 6.2748357,5.172114 6.5546875,5.3242187 Z"
     id="path1" />
</svg>
