<?xml version="1.0" encoding="UTF-8" standalone="no"?>
<svg
   width="24"
   height="24"
   viewBox="0 0 24 24"
   version="1.1"
   id="svg1"
   xmlns="http://www.w3.org/2000/svg"
   xmlns:svg="http://www.w3.org/2000/svg">
  <defs
     id="defs1" />
  <path
     style="baseline-shift:baseline;display:inline;overflow:visible;vector-effect:none;fill:currentColor;stroke-linecap:round;stroke-linejoin:round;enable-background:accumulate;stop-color:#000000;stop-opacity:1;opacity:1"
     d="M 12,2.25 C 8.5321875,2.2492293 5.341721,4.1044571 3.5957031,7.0917969 a 0.75,0.75 0 0 0 -0.00586,0 0.75,0.75 0 0 0 0,0.00586 C 3.5652995,7.1397325 3.5278683,7.1703631 3.5039063,7.2128906 2.7052463,8.6270714 2.25,10.264159 2.25,12 c -9.068e-4,0.823309 0.1033987,1.642124 0.3085938,2.439453 a 0.75,0.75 0 0 0 0,0.002 C 3.6718915,18.740962 7.5586472,21.749737 12,21.75 c 4.430263,-2.63e-4 8.303412,-2.996915 9.427734,-7.279297 a 0.75,0.75 0 0 0 0.0098,-0.01953 c 9.07e-4,-0.0035 0.003,-0.0063 0.0039,-0.0098 a 0.75,0.75 0 0 0 0.002,-0.002 c 0.200242,-0.77932 0.306472,-1.596576 0.306641,-2.4375 0.0026,-1.677414 -0.429432,-3.3282522 -1.253906,-4.7890624 -0.02396,-0.042527 -0.06139,-0.073158 -0.08594,-0.1152344 a 0.75,0.75 0 0 0 0,-0.00586 0.75,0.75 0 0 0 -0.0078,-0.00391 C 18.655833,4.1027693 15.466354,2.2492296 12,2.25 Z m 0,1.5 c 0.837067,0 1.765576,0.7284168 2.511719,2.2207031 0.426401,0.8528029 0.731029,1.9562288 0.947265,3.1601563 C 14.345008,9.4926136 13.191892,9.7518235 12.001953,9.75 A 0.750075,0.750075 0 0 0 12,9.75 C 10.781374,9.75 9.64033,9.4765952 8.5429688,9.1191406 8.7593214,7.9197585 9.0631943,6.820877 9.4882813,5.9707031 10.234424,4.4784168 11.162933,3.75 12,3.75 Z M 8.7539063,4.4902344 C 8.5610008,4.779152 8.3099558,4.9738385 8.1464844,5.3007812 7.6884554,6.2168392 7.342867,7.2987545 7.1035156,8.4804688 6.4517317,8.1588358 5.8212364,7.8079732 5.2480469,7.3710937 6.1367381,6.0772232 7.3445487,5.0992984 8.7539063,4.4902344 Z m 6.4921877,0 c 1.409357,0.609064 2.617168,1.5869888 3.505859,2.8808593 -0.5783,0.4404015 -1.209394,0.7817758 -1.855469,1.0996094 C 16.657135,7.292551 16.310378,6.2145066 15.853516,5.3007812 15.690044,4.9738385 15.438999,4.779152 15.246094,4.4902344 Z M 4.5214844,8.6582031 C 5.2775955,9.2153265 6.0703524,9.7221205 6.9414062,10.103516 6.8747908,10.735887 6.75,11.329554 6.75,12 c 0,1.043949 0.1388162,2.009574 0.296875,2.953125 C 5.987986,14.634377 4.9509112,14.244887 3.9667969,13.724609 3.845723,13.156596 3.7493596,12.581418 3.75,12 3.75,10.797364 4.0604793,9.6864321 4.5214844,8.6582031 Z m 14.9550776,0 C 19.948334,9.7136209 20.251819,10.836203 20.25,11.998047 a 0.750075,0.750075 0 0 0 0,0.002 c 0,0.596213 -0.09728,1.165144 -0.216797,1.724609 -0.984114,0.520278 -2.021189,0.909768 -3.080078,1.228516 C 17.111184,14.009574 17.25,13.043949 17.25,12 c 0,-0.675231 -0.123855,-1.273588 -0.191406,-1.910156 0.858709,-0.3754452 1.65624,-0.8711479 2.417968,-1.4316409 z M 8.3925781,10.591797 C 9.5511641,10.938103 10.730913,11.25 12,11.25 c 1.24101,0.0017 2.435964,-0.298157 3.607422,-0.646484 C 15.648132,11.076702 15.75,11.502799 15.75,12 c 0,1.182116 -0.124694,2.30425 -0.337891,3.320313 -1.123562,0.226902 -2.255011,0.431816 -3.410156,0.429687 a 0.750075,0.750075 0 0 0 -0.0039,0 C 10.842902,15.752129 9.711453,15.547215 8.5878906,15.320313 8.3746936,14.30425 8.25,13.182116 8.25,12 c 0,-0.50133 0.1012078,-0.93132 0.1425781,-1.408203 z M 4.703125,15.619141 c 0.9105211,0.388173 1.8019554,0.822013 2.7597656,1.060546 0.2065666,0.701984 0.3905235,1.433391 0.6835938,2.019532 C 8.3079384,19.022127 8.555919,19.214123 8.7460938,19.5 6.9812602,18.732863 5.5745721,17.371685 4.703125,15.619141 Z m 14.59375,0 C 18.425428,17.371685 17.01874,18.732863 15.253906,19.5 c 0.190175,-0.285877 0.438156,-0.477873 0.59961,-0.800781 0.29307,-0.586141 0.477027,-1.317548 0.683593,-2.019532 0.957811,-0.238533 1.849245,-0.672373 2.759766,-1.060546 z M 9.1054688,16.886719 c 0.9622542,0.150641 1.9157692,0.365089 2.8964842,0.363281 0.9794,0.0016 1.931601,-0.21284 2.892578,-0.363281 -0.133645,0.373686 -0.223856,0.824664 -0.382812,1.142578 C 13.765576,19.521583 12.837067,20.25 12,20.25 11.162933,20.25 10.234424,19.521583 9.4882813,18.029297 9.3293246,17.711383 9.2391143,17.260405 9.1054688,16.886719 Z"
     id="path1" />
</svg>
