<?xml version="1.0" encoding="UTF-8" standalone="no"?>
<svg
   width="24"
   height="24"
   viewBox="0 0 24 24"
   version="1.1"
   id="svg1"
   xmlns="http://www.w3.org/2000/svg"
   xmlns:svg="http://www.w3.org/2000/svg">
  <defs
     id="defs1" />
  <path
     style="baseline-shift:baseline;display:inline;overflow:visible;vector-effect:none;fill:currentColor;stroke-linecap:round;stroke-linejoin:round;enable-background:accumulate;stop-color:#000000;stop-opacity:1;opacity:1"
     d="M 11.927734,3.0136719 C 8.1198345,3.0686884 4.420791,5.5103377 3.3066406,9.671875 a 0.75,0.75 0 0 0 0.53125,0.917969 0.75,0.75 0 0 0 0.9179688,-0.53125 C 6.2585105,4.4459415 13.194243,2.5867701 17.302734,6.6953125 l 1.902344,1.9023438 h -3.181641 a 0.75,0.75 0 0 0 -0.749999,0.75 0.75,0.75 0 0 0 0.749999,0.7499997 h 4.992188 a 0.75,0.75 0 0 0 0.529297,-0.2207029 0.75,0.75 0 0 0 0.220703,-0.5292968 0.75,0.75 0 0 0 0,-0.00195 V 4.3554687 a 0.75,0.75 0 0 0 -0.75,-0.7499999 0.75,0.75 0 0 0 -0.75,0.7499999 V 7.5371094 L 18.365234,5.6347656 c -1.82776,-1.8277832 -4.15276,-2.6541037 -6.4375,-2.6210937 z m 8.234375,10.3964841 a 0.75,0.75 0 0 0 -0.917968,0.53125 C 17.74149,19.554059 10.803804,21.41323 6.6953125,17.304687 L 4.7949219,15.402344 h 3.1816406 a 0.75,0.75 0 0 0 0.75,-0.75 0.75,0.75 0 0 0 -0.75,-0.75 H 2.984375 a 0.75,0.75 0 0 0 -0.21875,0.21875 0.75,0.75 0 0 0 -0.3125,0 0.75,0.75 0 0 0 0,0.3125 0.75,0.75 0 0 0 -0.21875,0.21875 v 4.992187 a 0.75,0.75 0 0 0 0.75,0.75 0.75,0.75 0 0 0 0.75,-0.75 v -3.18164 l 1.9003906,1.902343 c 4.8740284,4.874089 13.2759534,2.621351 15.0585934,-4.037109 a 0.75,0.75 0 0 0 -0.53125,-0.917969 z"
     id="path1" />
</svg>
