<?xml version="1.0" encoding="UTF-8" standalone="no"?>
<svg
   width="24"
   height="24"
   viewBox="0 0 24 24"
   version="1.1"
   id="svg1"
   xmlns="http://www.w3.org/2000/svg"
   xmlns:svg="http://www.w3.org/2000/svg">
  <defs
     id="defs1" />
  <path
     style="baseline-shift:baseline;display:inline;overflow:visible;vector-effect:none;fill:currentColor;stroke-linecap:round;stroke-linejoin:round;enable-background:accumulate;stop-color:#000000;stop-opacity:1;opacity:1"
     d="M 14.615234,1.5957031 A 0.750075,0.750075 0 0 0 13.701172,1.7382812 L 3.2011719,12.988281 A 0.750075,0.750075 0 0 0 3.75,14.25 h 7.269531 l -1.9921872,7.302734 a 0.750075,0.750075 0 0 0 1.2714842,0.708985 l 10.5,-11.25 A 0.750075,0.750075 0 0 0 20.25,9.75 H 12.980469 L 14.972656,2.4472656 A 0.750075,0.750075 0 0 0 14.615234,1.5957031 Z M 12.728516,4.9785156 11.277344,10.302734 A 0.750075,0.750075 0 0 0 12,11.25 h 6.523437 l -7.251953,7.771484 1.451172,-5.324218 A 0.750075,0.750075 0 0 0 12,12.75 H 5.4765625 Z"
     id="path1" />
</svg>
