<?xml version="1.0" encoding="UTF-8" standalone="no"?>
<svg
   width="24"
   height="24"
   viewBox="0 0 24 24"
   version="1.1"
   id="svg1"
   xmlns="http://www.w3.org/2000/svg"
   xmlns:svg="http://www.w3.org/2000/svg">
  <defs
     id="defs1" />
  <path
     style="baseline-shift:baseline;display:inline;overflow:visible;vector-effect:none;fill:currentColor;stroke-linecap:round;stroke-linejoin:round;enable-background:accumulate;stop-color:#000000;stop-opacity:1;opacity:1"
     d="M 6.75,2.25 A 0.75,0.75 0 0 0 6,3 V 4.5 H 5.25 c -1.6479708,0 -3,1.3520292 -3,3 v 3.75 7.5 c 0,1.647971 1.3520292,3 3,3 h 13.5 c 1.647971,0 3,-1.352029 3,-3 V 11.25 7.5 c 0,-1.6479708 -1.352029,-3 -3,-3 H 18 V 3 A 0.75,0.75 0 0 0 17.25,2.25 0.75,0.75 0 0 0 16.5,3 v 1.5 h -9 V 3 A 0.75,0.75 0 0 0 6.75,2.25 Z M 5.25,6 h 1.5 10.5 1.5 c 0.837311,0 1.5,0.6626894 1.5,1.5 V 8.875 C 19.78747,8.5826773 19.333719,8.25 18.75,8.25 H 5.25 c -0.5837192,0 -1.0374704,0.3326773 -1.5,0.625 V 7.5 C 3.75,6.6626894 4.4126894,6 5.25,6 Z m 0,3.75 h 13.5 c 0.837311,0 1.5,0.662689 1.5,1.5 v 7.5 c 0,0.837311 -0.662689,1.5 -1.5,1.5 H 5.25 c -0.8373106,0 -1.5,-0.662689 -1.5,-1.5 v -7.5 c 0,-0.837311 0.6626894,-1.5 1.5,-1.5 z"
     id="path1" />
</svg>
