<?xml version="1.0" encoding="UTF-8" standalone="no"?>
<svg
   width="24"
   height="24"
   viewBox="0 0 24 24"
   version="1.1"
   id="svg1"
   xmlns="http://www.w3.org/2000/svg">
  <defs id="defs1" />
  <!-- bold X for "quit" — thicker strokes than kobel-close-symbolic -->
  <path
     style="fill:currentColor"
     d="M 17.78125,5.21875 A 1,1 0 0 0 17.0625,5.46875 L 12,10.53125 6.9375,5.46875 A 1,1 0 0 0 6.21875,5.21875 1,1 0 0 0 5.46875,6.9375 L 10.53125,12 5.46875,17.0625 A 1,1 0 0 0 6.9375,18.53125 L 12,13.46875 17.0625,18.53125 A 1,1 0 0 0 18.53125,17.0625 L 13.46875,12 18.53125,6.9375 A 1,1 0 0 0 17.78125,5.21875 Z" />
</svg>
