<?xml version="1.0" encoding="UTF-8" standalone="no"?>
<svg
   width="24"
   height="24"
   viewBox="0 0 24 24"
   version="1.1"
   id="svg1"
   xmlns="http://www.w3.org/2000/svg"
   xmlns:svg="http://www.w3.org/2000/svg">
  <defs
     id="defs1" />
  <path
     style="baseline-shift:baseline;display:inline;overflow:visible;vector-effect:none;fill:currentColor;stroke-linecap:round;stroke-linejoin:round;enable-background:accumulate;stop-color:#000000;stop-opacity:1;opacity:1"
     d="m 12,3.7558594 c -3.8402673,0 -7.6796732,1.4628763 -10.6054688,4.3886719 a 0.75,0.75 0 0 0 0,1.0605468 0.75,0.75 0 0 0 1.0605469,0 c 5.2784089,-5.2784089 13.8114349,-5.2784089 19.0898439,0 a 0.75,0.75 0 0 0 1.060547,0 0.75,0.75 0 0 0 0,-1.0605468 C 19.679673,5.2187357 15.840267,3.7558594 12,3.7558594 Z m 0,4.4980469 c -2.6886613,3.2e-6 -5.3770264,1.0249262 -7.4238281,3.0722657 a 0.75,0.75 0 0 0 0,1.060547 0.75,0.75 0 0 0 1.0605468,0 c 3.5203966,-3.5213216 9.2051283,-3.5214345 12.7265623,0 a 0.75,0.75 0 0 0 1.060547,0 0.75,0.75 0 0 0 0,-1.060547 C 17.376545,9.278889 14.688661,8.253903 12,8.2539063 Z m 0,4.5019527 c -1.536946,0 -3.0737946,0.583756 -4.2421875,1.751954 a 0.75,0.75 0 0 0 0,1.060546 0.75,0.75 0 0 0 1.0605469,0 c 1.7635776,-1.763282 4.5997036,-1.763282 6.3632816,0 a 0.75,0.75 0 0 0 1.060546,0 0.75,0.75 0 0 0 0,-1.060546 C 15.073795,13.339615 13.536946,12.755859 12,12.755859 Z m 0,4.5 c -0.385157,0 -0.77086,0.144267 -1.060547,0.433594 a 0.750075,0.750075 0 0 0 0,1.060547 l 0.529297,0.53125 a 0.750075,0.750075 0 0 0 1.0625,0 L 13.060547,18.75 a 0.75,0.75 0 0 0 0,-1.060547 C 12.77086,17.400126 12.385157,17.255859 12,17.255859 Z"
     id="path1" />
</svg>
