<svg xmlns="http://www.w3.org/2000/svg" width="24" height="24" viewBox="0 0 24 24" fill="currentColor">
  <path d="M15 1.784l-.796.796a1.125 1.125 0 1 0 1.591 0L15 1.784ZM12 1.784l-.796.796a1.125 1.125 0 1 0 1.591 0L12 1.784ZM9 1.784l-.796.796a1.125 1.125 0 1 0 1.591 0L9 1.784ZM3.75 7.5a.75.75 0 0 1 .75-.75h15a.75.75 0 0 1 .75.75v.25c0 .138-.112.25-.25.25H4a.25.25 0 0 1-.25-.25V7.5ZM3.091 9.389A.75.75 0 0 1 3.75 9h16.5a.75.75 0 0 1 .739.87l-1.375 8.25A2.25 2.25 0 0 1 17.39 20.25H6.61a2.25 2.25 0 0 1-2.224-1.88l-1.375-8.25a.75.75 0 0 1 .08-.481Z" />
</svg>
