<?xml version="1.0" encoding="UTF-8" standalone="no"?>
<svg
   width="24"
   height="24"
   viewBox="0 0 24 24"
   version="1.1"
   xmlns="http://www.w3.org/2000/svg">
  <defs />
  <!-- speaker cone with X mute slash -->
  <path
     style="fill:currentColor"
     d="M 3.63,3.63 A 1,1 0 0 0 2.22,5.04 L 7.18,10 H 4 A 2,2 0 0 0 2,12 v 0 a 2,2 0 0 0 2,2 h 3.18 l 4.41,4.41 C 12.37,19.19 13.5,18.7 13.5,17.58 V 14.82 l 4.73,4.73 a 1,1 0 0 0 1.41,-1.41 Z M 13.5,6.42 V 4.42 A 2.43,2.43 0 0 0 9.59,3.59 L 10.83,4.83 Z M 17.78,9.22 a 5,5 0 0 1 0.72,3.28 l 1.49,1.49 A 7,7 0 0 0 19,8 a 1,1 0 0 0 -1.73,1 Z M 14.73,7.27 a 3,3 0 0 1 1.27,2.48 l 1.45,1.45 a 5,5 0 0 0 -1.27,-5.38 1,1 0 0 0 -1.45,1.45 Z" />
</svg>
