<?xml version="1.0" encoding="UTF-8" standalone="no"?>
<svg
   width="24"
   height="24"
   viewBox="0 0 24 24"
   version="1.1"
   id="svg1"
   xmlns="http://www.w3.org/2000/svg"
   xmlns:svg="http://www.w3.org/2000/svg">
  <defs
     id="defs1" />
  <path
     style="baseline-shift:baseline;display:inline;overflow:visible;vector-effect:none;fill:currentColor;stroke-linecap:round;stroke-linejoin:round;enable-background:accumulate;stop-color:#000000;stop-opacity:1;opacity:1"
     d="M 11.732422,2.5898438 C 11.444338,2.6413722 11.164419,2.7753136 10.939453,3 L 6.4375,7.5 H 4.5097656 C 3.3422656,7.5 2.183352,8.1948365 1.8496094,9.4042969 1.6219882,10.231321 1.5,11.10253 1.5,12 1.4990137,12.876971 1.6171262,13.750108 1.8496094,14.595703 2.1834982,15.804266 3.3416974,16.5 4.5097656,16.5 H 6.4394531 L 10.939453,21 c 0.449932,0.449373 1.121674,0.538624 1.634766,0.326172 C 13.087311,21.11372 13.499441,20.57731 13.5,19.941406 a 0.750075,0.750075 0 0 0 0,-0.002 V 4.0605469 a 0.750075,0.750075 0 0 0 0,-0.00195 C 13.499441,3.4226895 13.087311,2.8862804 12.574219,2.6738281 12.317673,2.567602 12.020506,2.5383153 11.732422,2.5898438 Z M 12,4.0605469 V 19.939453 L 7.28125,15.21875 A 0.750075,0.750075 0 0 0 6.75,15 H 4.5097656 C 3.9178338,15 3.4290331,14.680749 3.2949219,14.195313 3.0985464,13.48039 2.9991662,12.741407 3,12 3,11.23747 3.1025431,10.501711 3.2949219,9.8027344 3.4291793,9.3161948 3.9172656,9 4.5097656,9 H 6.75 A 0.750075,0.750075 0 0 0 7.28125,8.78125 Z m 7.113281,0.8261718 a 0.75,0.75 0 0 0 -0.529297,0.21875 0.75,0.75 0 0 0 0,1.0605469 c 3.228155,3.2281154 3.228155,8.4398534 0,11.6679684 a 0.75,0.75 0 0 0 0,1.060547 0.75,0.75 0 0 0 1.060547,0 c 3.801387,-3.801339 3.801387,-9.9877225 0,-13.7890623 a 0.75,0.75 0 0 0 -0.53125,-0.21875 z m -3.179687,2.8710938 a 0.75,0.75 0 0 0 0,1.0605469 c 1.763282,1.7635776 1.763282,4.5997036 0,6.3632816 a 0.75,0.75 0 0 0 0,1.060546 0.75,0.75 0 0 0 1.060547,0 c 2.336394,-2.336785 2.336394,-6.147589 0,-8.4843745 a 0.75,0.75 0 0 0 -1.060547,0 z"
     id="path1" />
</svg>
