<?xml version="1.0" encoding="UTF-8" standalone="no"?>
<svg
   width="24"
   height="24"
   viewBox="0 0 24 24"
   version="1.1"
   id="svg1"
   xmlns="http://www.w3.org/2000/svg"
   xmlns:svg="http://www.w3.org/2000/svg">
  <defs
     id="defs1" />
  <path
     style="baseline-shift:baseline;display:inline;overflow:visible;vector-effect:none;fill:currentColor;stroke-linecap:round;stroke-linejoin:round;enable-background:accumulate;stop-color:#000000;stop-opacity:1;opacity:1"
     d="m 12,1.5253906 c -1.015075,0 -2.0292822,0.4940341 -2.5976562,1.4785157 a 0.750075,0.750075 0 0 0 -0.00195,0 L 2.046875,15.751953 C 0.91026165,17.720683 2.3722256,20.25 4.6445312,20.25 H 19.355469 c 2.271618,0 3.733035,-2.529182 2.597656,-4.498047 L 14.599609,3.0039063 a 0.750075,0.750075 0 0 0 -0.002,0 C 14.029282,2.0194247 13.015075,1.5253906 12,1.5253906 Z m 0,1.4550782 c 0.500925,0 1.001202,0.257919 1.298828,0.7734375 L 20.654297,16.5 h -0.002 c 0.594621,1.031135 -0.108494,2.25 -1.296875,2.25 H 4.6445312 c -1.1896943,0 -1.8942147,-1.216777 -1.2988281,-2.248047 a 0.750075,0.750075 0 0 0 0,-0.002 L 10.701172,3.7539063 C 10.998798,3.2383878 11.499075,2.9804688 12,2.9804688 Z M 12,8.25 A 0.75,0.75 0 0 0 11.25,9 v 3.75 A 0.75,0.75 0 0 0 12,13.5 0.75,0.75 0 0 0 12.75,12.75 V 9 A 0.75,0.75 0 0 0 12,8.25 Z M 12,15 a 0.750075,0.750075 0 0 0 -0.75,0.75 v 0.0078 A 0.750075,0.750075 0 0 0 12,16.507812 h 0.0078 a 0.750075,0.750075 0 0 0 0.75,-0.749999 V 15.75 a 0.750075,0.750075 0 0 0 -0.75,-0.75 z m 0.0039,0.01172 0.742188,0.742187 -0.742188,0.742188 -0.742187,-0.742188 z"
     id="path1" />
</svg>
