<?xml version="1.0" encoding="UTF-8" standalone="no"?>
<svg
   width="24"
   height="24"
   viewBox="0 0 24 24"
   version="1.1"
   id="svg1"
   xmlns="http://www.w3.org/2000/svg"
   xmlns:svg="http://www.w3.org/2000/svg">
  <defs
     id="defs1" />
  <path
     style="baseline-shift:baseline;display:inline;overflow:visible;vector-effect:none;fill:currentColor;stroke-linecap:round;stroke-linejoin:round;enable-background:accumulate;stop-color:#000000;stop-opacity:1;opacity:1"
     d="M 12,2.25 C 8.2809622,2.25 5.25,5.2809594 5.25,9 v 0.75 c 0.0025,2.038783 -0.7529065,4.006241 -2.1191406,5.519531 a 0.750075,0.750075 0 0 0 0.296875,1.205078 c 1.5717125,0.580437 3.2444724,0.935636 4.9472656,1.1875 -0.1809847,2.116096 1.3919052,4.085938 3.625,4.085938 2.233095,0 3.805985,-1.969842 3.625,-4.085938 1.681343,-0.248844 3.349201,-0.597761 4.945312,-1.185547 a 0.750075,0.750075 0 0 0 0.296875,-1.207031 C 19.501286,13.756104 18.747247,11.790615 18.75,9.7519531 A 0.750075,0.750075 0 0 0 18.75,9.75 V 9 C 18.75,5.2809594 15.719038,2.25 12,2.25 Z m 0,1.5 c 2.908379,0 5.25,2.3416191 5.25,5.25 V 9.7480469 9.75 c -0.0023,2.015855 0.747044,3.902072 1.896484,5.535156 -1.43091,0.462571 -2.882255,0.874502 -4.376953,1.052735 -6.3e-4,7.5e-5 -0.0013,-7.6e-5 -0.002,0 -1.838823,0.217549 -3.6983,0.217702 -5.5371092,0 C 7.7086269,16.157197 6.2678428,15.744725 4.8515625,15.285156 6.0017007,13.651632 6.7524748,11.766664 6.75,9.75 V 9 C 6.75,6.0916191 9.0916209,3.75 12,3.75 Z M 9.8183594,17.826172 c 1.4527266,0.127097 2.9105546,0.127097 4.3632816,0 0.104966,1.276633 -0.820095,2.421875 -2.181641,2.421875 -1.361546,0 -2.2866069,-1.145242 -2.1816406,-2.421875 z"
     id="path1" />
</svg>
