<?xml version="1.0" encoding="UTF-8" standalone="no"?>
<svg
   width="24"
   height="24"
   viewBox="0 0 24 24"
   version="1.1"
   id="svg1"
   xmlns="http://www.w3.org/2000/svg"
   xmlns:svg="http://www.w3.org/2000/svg">
  <defs
     id="defs1" />
  <path
     style="baseline-shift:baseline;display:inline;overflow:visible;vector-effect:none;fill:currentColor;stroke-linecap:round;stroke-linejoin:round;enable-background:accumulate;stop-color:#000000;stop-opacity:1;opacity:1"
     d="M 4.1035156,6.8242187 C 3.1430762,6.8549986 2.25,7.6365052 2.25,8.6894531 v 8.1210939 c -1.712e-4,1.403924 1.5856286,2.325253 2.8046875,1.628906 L 12,14.470703 v 2.339844 c -1.71e-4,1.403924 1.585629,2.325253 2.804688,1.628906 l 7.107421,-4.060547 c 1.228487,-0.701331 1.228487,-2.556481 0,-3.257812 L 14.804688,7.0605469 C 13.585665,6.3632661 12,7.2855226 12,8.6894531 V 11.029297 L 5.0546875,7.0605469 C 4.7499319,6.8862267 4.4236621,6.8139588 4.1035156,6.8242187 Z m 0.2070313,1.5390626 7.1074221,4.0605467 a 0.750075,0.750075 0 0 0 0.002,0 c 0.284153,0.162221 0.284153,0.490123 0,0.652344 a 0.750075,0.750075 0 0 0 -0.002,0 L 4.3105469,17.136719 C 4.029524,17.297244 3.7499605,17.134186 3.75,16.810547 V 8.6894531 C 3.75,8.3653837 4.0295692,8.202562 4.3105469,8.3632813 Z m 9.7500001,0 7.107422,4.0605467 a 0.750075,0.750075 0 0 0 0.002,0 c 0.284153,0.162221 0.284153,0.490123 0,0.652344 a 0.750075,0.750075 0 0 0 -0.002,0 l -7.107422,4.060547 C 13.779524,17.297244 13.499961,17.134186 13.5,16.810547 V 8.6894531 c 0,-0.3240694 0.279569,-0.4868911 0.560547,-0.3261718 z"
     id="path1" />
</svg>
