<?xml version="1.0" encoding="UTF-8" standalone="no"?>
<svg
   width="24"
   height="24"
   viewBox="0 0 24 24"
   version="1.1"
   id="svg1"
   xmlns="http://www.w3.org/2000/svg"
   xmlns:svg="http://www.w3.org/2000/svg">
  <defs
     id="defs1" />
  <path
     style="baseline-shift:baseline;display:inline;overflow:visible;vector-effect:none;fill:currentColor;stroke-linecap:round;stroke-linejoin:round;enable-background:accumulate;stop-color:#000000;stop-opacity:1;opacity:1"
     d="M 12,2.25 A 0.75,0.75 0 0 0 11.25,3 V 5.25 A 0.75,0.75 0 0 0 12,6 0.75,0.75 0 0 0 12.75,5.25 V 3 A 0.75,0.75 0 0 0 12,2.25 Z m 6.363281,2.6367187 a 0.75,0.75 0 0 0 -0.529297,0.21875 l -1.591797,1.5917969 a 0.75,0.75 0 0 0 0,1.0605469 0.75,0.75 0 0 0 1.060547,0 l 1.591797,-1.5917969 a 0.75,0.75 0 0 0 0,-1.0605469 0.75,0.75 0 0 0 -0.53125,-0.21875 z m -13.2578123,0.21875 a 0.75,0.75 0 0 0 0,1.0605469 l 1.5917969,1.5917969 a 0.75,0.75 0 0 0 1.0605469,0 0.75,0.75 0 0 0 0,-1.0605469 L 6.1660156,5.1054687 a 0.75,0.75 0 0 0 -1.0605469,0 z M 12,7.5 C 10.895833,7.5 9.7815896,7.8644988 8.9238281,8.6269531 8.0660667,9.3894074 7.5,10.5625 7.5,12 c 0,1.4375 0.5660667,2.610593 1.4238281,3.373047 C 9.7815896,16.135501 10.895833,16.5 12,16.5 c 1.104167,0 2.21841,-0.364499 3.076172,-1.126953 C 15.933933,14.610593 16.5,13.4375 16.5,12 16.5,10.5625 15.933933,9.3894074 15.076172,8.6269531 14.21841,7.8644988 13.104167,7.5 12,7.5 Z M 12,9 c 0.770833,0 1.53159,0.2605017 2.080078,0.7480469 C 14.628567,10.235592 15,10.937501 15,12 15,13.062499 14.628567,13.764408 14.080078,14.251953 13.53159,14.739498 12.770833,15 12,15 11.229167,15 10.46841,14.739498 9.9199219,14.251953 9.3714333,13.764408 9,13.062499 9,12 9,10.937501 9.3714333,10.235592 9.9199219,9.7480469 10.46841,9.2605017 11.229167,9 12,9 Z M 3,11.25 A 0.75,0.75 0 0 0 2.25,12 0.75,0.75 0 0 0 3,12.75 H 5.25 A 0.75,0.75 0 0 0 6,12 0.75,0.75 0 0 0 5.25,11.25 Z m 15.75,0 A 0.75,0.75 0 0 0 18,12 0.75,0.75 0 0 0 18.75,12.75 H 21 A 0.75,0.75 0 0 0 21.75,12 0.75,0.75 0 0 0 21,11.25 Z m -1.976563,4.773437 a 0.75,0.75 0 0 0 -0.53125,0.21875 0.75,0.75 0 0 0 0,1.060547 l 1.591797,1.591797 a 0.75,0.75 0 0 0 1.060547,0 0.75,0.75 0 0 0 0,-1.060547 l -1.591797,-1.591797 a 0.75,0.75 0 0 0 -0.529297,-0.21875 z m -10.0761714,0.21875 -1.5917969,1.591797 a 0.75,0.75 0 0 0 0,1.060547 0.75,0.75 0 0 0 1.0605469,0 l 1.5917969,-1.591797 a 0.75,0.75 0 0 0 0,-1.060547 0.75,0.75 0 0 0 -1.0605469,0 z M 12,18 a 0.75,0.75 0 0 0 -0.75,0.75 V 21 A 0.75,0.75 0 0 0 12,21.75 0.75,0.75 0 0 0 12.75,21 V 18.75 A 0.75,0.75 0 0 0 12,18 Z"
     id="path1" />
</svg>
