<?xml version="1.0" encoding="UTF-8" standalone="no"?>
<svg
   width="24"
   height="24"
   viewBox="0 0 24 24"
   version="1.1"
   id="svg1"
   xmlns="http://www.w3.org/2000/svg"
   xmlns:svg="http://www.w3.org/2000/svg">
  <defs
     id="defs1" />
  <path
     style="baseline-shift:baseline;display:inline;overflow:visible;vector-effect:none;fill:currentColor;stroke-linecap:round;stroke-linejoin:round;enable-background:accumulate;stop-color:#000000;stop-opacity:1;opacity:1"
     d="m 10.5,2.2539063 c -2.1130009,-9e-7 -4.2261566,0.8042815 -5.8339844,2.4121093 -3.2156556,3.2156556 -3.2156532,8.4523154 0,11.6679684 3.027678,3.027678 7.7921844,3.095581 11.0292974,0.421875 l 4.773437,4.775391 a 0.75,0.75 0 0 0 1.0625,0 0.75,0.75 0 0 0 0,-1.0625 L 16.755859,15.695313 C 19.429565,12.4582 19.361662,7.6936937 16.333984,4.6660156 14.726158,3.058189 12.613001,2.2539071 10.5,2.2539063 Z m 0,1.4902343 c 1.725976,8e-7 3.452222,0.6612064 4.773438,1.9824219 2.64243,2.642431 2.642432,6.9044425 0,9.5468755 -2.642433,2.642432 -6.9044445,2.64243 -9.5468755,0 -2.642431,-2.642431 -2.6424327,-6.9044428 0,-9.5468755 C 7.0477788,4.4053461 8.7740236,3.7441398 10.5,3.7441406 Z"
     id="path1" />
</svg>
