<?xml version="1.0" encoding="UTF-8" standalone="no"?>
<svg
   width="24"
   height="24"
   viewBox="0 0 24 24"
   version="1.1"
   id="svg1"
   xmlns="http://www.w3.org/2000/svg"
   xmlns:svg="http://www.w3.org/2000/svg">
  <defs
     id="defs1" />
  <path
     style="baseline-shift:baseline;display:inline;overflow:visible;vector-effect:none;fill:currentColor;stroke-linecap:round;stroke-linejoin:round;enable-background:accumulate;stop-color:#000000;stop-opacity:1;opacity:1"
     d="M 10.316406,1.5273437 C 8.731721,1.577033 7.5,2.9116422 7.5,4.4765625 v 0.2480469 c -0.9309887,0.085393 -1.8605303,0.1795635 -2.7851563,0.3183593 -0.018141,0.00272 -0.03655,0.00312 -0.054687,0.00586 C 4.313487,5.1009639 3.9683688,5.1572119 3.6230469,5.2167969 A 0.75,0.75 0 0 0 3.0117188,6.0820312 0.75,0.75 0 0 0 3.8769531,6.6933594 c 0.06951,-0.011994 0.1394175,-0.021521 0.2089844,-0.033203 L 5.0917969,19.730469 C 5.2118031,21.286624 6.5232084,22.500458 8.0839844,22.5 h 7.8320316 c 1.560776,4.58e-4 2.872181,-1.213376 2.992187,-2.769531 L 19.914062,6.6621094 c 0.06951,0.011702 0.13953,0.021219 0.208985,0.033203 A 0.75,0.75 0 0 0 20.988281,6.0839844 0.75,0.75 0 0 0 20.376953,5.2167969 C 20.0321,5.1572929 19.687992,5.1015687 19.341797,5.0488281 a 0.75,0.75 0 0 0 -0.002,0 c -0.01814,-0.00274 -0.03655,-0.00314 -0.05469,-0.00586 C 18.36053,4.9041729 17.430989,4.8100023 16.5,4.7246094 V 4.4765625 c 0,-1.5655932 -1.232144,-2.8995427 -2.816406,-2.9492188 -1.122342,-0.035847 -2.244846,-0.035847 -3.367188,0 z m 0.04687,1.4980469 c 1.090427,-0.034828 2.183011,-0.034828 3.273438,0 C 14.412457,3.0497146 15,3.6821557 15,4.4765625 v 0.1679687 c -1.99913,-0.1208281 -4.00087,-0.1208281 -6,0 V 4.4765625 C 9,3.6834828 9.5879665,3.0497013 10.363281,3.0253906 Z M 8.3066406,6.140625 c 6.5e-4,-4.99e-5 0.0013,4.99e-5 0.00195,0 2.4568252,-0.1884752 4.9259872,-0.1884752 7.3828122,0 6.5e-4,4.99e-5 0.0013,-4.99e-5 0.002,0 0.914276,0.070744 1.823908,0.1886944 2.732422,0.3125 L 17.412109,19.615234 C 17.351305,20.403705 16.706827,21.000232 15.916016,21 H 8.0839844 C 7.2931727,21.000232 6.6486952,20.403705 6.5878906,19.615234 L 5.5742187,6.453125 C 6.482733,6.3293194 7.3923646,6.2113686 8.3066406,6.140625 Z M 9.2304688,8.25 A 0.75,0.75 0 0 0 8.5097656,9.0292969 L 8.8574219,18.029297 A 0.75,0.75 0 0 0 9.6347656,18.75 0.75,0.75 0 0 0 10.355469,17.970703 L 10.009766,8.9707031 A 0.75,0.75 0 0 0 9.2304688,8.25 Z m 5.5390622,0 A 0.75,0.75 0 0 0 13.990234,8.9707031 L 13.644531,17.970703 A 0.75,0.75 0 0 0 14.365234,18.75 0.75,0.75 0 0 0 15.142578,18.029297 L 15.490234,9.0292969 A 0.75,0.75 0 0 0 14.769531,8.25 Z"
     id="path1" />
</svg>
