<?xml version="1.0" encoding="UTF-8" standalone="no"?>
<svg
   width="24"
   height="24"
   viewBox="0 0 24 24"
   version="1.1"
   id="svg1"
   xmlns="http://www.w3.org/2000/svg"
   xmlns:svg="http://www.w3.org/2000/svg">
  <defs
     id="defs1" />
  <path
     style="baseline-shift:baseline;display:inline;overflow:visible;vector-effect:none;fill:currentColor;stroke-linecap:round;stroke-linejoin:round;enable-background:accumulate;stop-color:#000000;stop-opacity:1;opacity:1"
     d="M 11.566406,3.0996094 A 1.0001,1.0001 0 0 0 11,4 V 9.9179688 L 7.625,7.21875 A 1,1 0 0 0 6.21875,7.375 1,1 0 0 0 6.375,8.78125 L 10.398438,12 6.375,15.21875 A 1,1 0 0 0 6.21875,16.625 1,1 0 0 0 7.625,16.78125 L 11,14.082031 V 20 a 1.0001,1.0001 0 0 0 1.625,0.78125 l 5,-4 a 1.0001,1.0001 0 0 0 0,-1.5625 L 13.601563,12 17.625,8.78125 a 1.0001,1.0001 0 0 0 0,-1.5625 l -5,-4 A 1.0001,1.0001 0 0 0 11.566406,3.0996094 Z M 13,6.0820312 15.398438,8 13,9.9179688 Z M 13,14.082031 15.398438,16 13,17.917969 Z"
     id="path1" />
</svg>
