<?xml version="1.0" encoding="UTF-8" standalone="no"?>
<svg
   width="24"
   height="24"
   viewBox="0 0 24 24"
   version="1.1"
   id="svg1"
   xmlns="http://www.w3.org/2000/svg"
   xmlns:svg="http://www.w3.org/2000/svg">
  <defs
     id="defs1" />
  <path
     style="baseline-shift:baseline;display:inline;overflow:visible;vector-effect:none;fill:currentColor;stroke-linecap:round;stroke-linejoin:round;enable-background:accumulate;stop-color:#000000;stop-opacity:1;opacity:1"
     d="m 4.5,4.5 c -1.6479708,0 -3,1.3520292 -3,3 v 9 c 0,1.647971 1.3520292,3 3,3 h 9 c 1.647971,0 3,-1.352029 3,-3 v -1.1875 l 3.439453,3.4375 c 0.449932,0.449373 1.121674,0.538624 1.634766,0.326172 C 22.087311,18.86372 22.499441,18.32731 22.5,17.691406 a 0.750075,0.750075 0 0 0 0,-0.002 V 6.3105469 a 0.750075,0.750075 0 0 0 0,-0.00195 C 22.499441,5.6726895 22.087311,5.1362804 21.574219,4.9238281 21.061127,4.7113759 20.389385,4.8006272 19.939453,5.25 L 16.5,8.6875 V 7.5 c 0,-1.6479708 -1.352029,-3 -3,-3 z m 0,1.5 h 9 C 14.337311,6 15,6.6626894 15,7.5 v 3 3 3 c 0,0.837311 -0.662689,1.5 -1.5,1.5 h -9 C 3.6626894,18 3,17.337311 3,16.5 v -9 C 3,6.6626894 3.6626894,6 4.5,6 Z M 21,6.3105469 V 17.689453 L 16.5,13.1875 v -2.375 z"
     id="path1" />
</svg>
