<?xml version="1.0" encoding="UTF-8" standalone="no"?>
<svg
   width="24"
   height="24"
   viewBox="0 0 24 24"
   version="1.1"
   id="svg1"
   xmlns="http://www.w3.org/2000/svg"
   xmlns:svg="http://www.w3.org/2000/svg">
  <defs
     id="defs1" />
  <path
     style="baseline-shift:baseline;display:inline;overflow:visible;vector-effect:none;fill:currentColor;stroke-linecap:round;stroke-linejoin:round;enable-background:accumulate;stop-color:#000000;stop-opacity:1;opacity:1"
     d="M 12,1.5 C 10.07893,1.5 8.1835148,1.6109136 6.3203125,1.8261719 4.8389505,1.9985485 3.75,3.2863139 3.75,4.7578125 V 19.5 c 0,1.647971 1.3520292,3 3,3 h 10.5 c 1.647971,0 3,-1.352029 3,-3 V 4.7578125 C 20.25,3.2860941 19.161362,1.9984283 17.679687,1.8261719 15.794602,1.6089887 13.897555,1.5005908 12,1.5 Z M 12,3 c 1.840342,5.73e-4 3.679564,0.1057713 5.507812,0.3164063 C 18.227186,3.40098 18.75,4.0141669 18.75,4.7578125 V 19.5 c 0,0.837311 -0.662689,1.5 -1.5,1.5 H 6.75 C 5.9126894,21 5.25,20.337311 5.25,19.5 V 4.7578125 C 5.25,4.0159456 5.7744943,3.4008633 6.4921875,3.3164063 8.2989852,3.1076645 10.13707,3 12,3 Z M 8.25,5.25 A 0.750075,0.750075 0 0 0 7.5,6 V 8.25 A 0.750075,0.750075 0 0 0 8.25,9 h 7.5 A 0.750075,0.750075 0 0 0 16.5,8.25 V 6 A 0.750075,0.750075 0 0 0 15.75,5.25 Z M 9,6.75 h 6 V 7.5 H 9 Z M 8.25,10.5 A 0.750075,0.750075 0 0 0 7.5,11.25 v 0.0078 a 0.750075,0.750075 0 0 0 0.75,0.75 h 0.00781 a 0.750075,0.750075 0 0 0 0.75,-0.75 V 11.25 a 0.750075,0.750075 0 0 0 -0.75,-0.75 z m 2.498047,0 a 0.750075,0.750075 0 0 0 -0.7500001,0.75 v 0.0078 a 0.750075,0.750075 0 0 0 0.7500001,0.75 h 0.0078 a 0.750075,0.750075 0 0 0 0.75,-0.75 V 11.25 a 0.750075,0.750075 0 0 0 -0.75,-0.75 z m 2.503906,0 a 0.750075,0.750075 0 0 0 -0.75,0.75 v 0.0078 a 0.750075,0.750075 0 0 0 0.75,0.75 h 0.0078 a 0.750075,0.750075 0 0 0 0.75,-0.75 V 11.25 a 0.750075,0.750075 0 0 0 -0.75,-0.75 z M 15.75,10.5 A 0.750075,0.750075 0 0 0 15,11.25 v 0.0078 a 0.750075,0.750075 0 0 0 0.75,0.75 h 0.0078 a 0.750075,0.750075 0 0 0 0.749999,-0.75 V 11.25 A 0.750075,0.750075 0 0 0 15.757813,10.5 Z m -7.4960937,0.01172 0.7421875,0.742187 -0.7421875,0.742188 -0.7421876,-0.742188 z m 2.4980467,0 0.742188,0.742187 -0.742188,0.742188 -0.742187,-0.742188 z m 2.503906,0 0.742188,0.742187 -0.742188,0.742188 -0.742187,-0.742188 z m 2.498047,0 0.742188,0.742187 -0.742188,0.742188 -0.742187,-0.742188 z M 8.25,12.75 A 0.750075,0.750075 0 0 0 7.5,13.5 v 0.0078 a 0.750075,0.750075 0 0 0 0.75,0.75 h 0.00781 a 0.750075,0.750075 0 0 0 0.75,-0.75 V 13.5 a 0.750075,0.750075 0 0 0 -0.75,-0.75 z m 2.498047,0 A 0.750075,0.750075 0 0 0 9.9980469,13.5 v 0.0078 a 0.750075,0.750075 0 0 0 0.7500001,0.75 h 0.0078 a 0.750075,0.750075 0 0 0 0.75,-0.75 V 13.5 a 0.750075,0.750075 0 0 0 -0.75,-0.75 z m 2.503906,0 a 0.750075,0.750075 0 0 0 -0.75,0.75 v 0.0078 a 0.750075,0.750075 0 0 0 0.75,0.75 h 0.0078 a 0.750075,0.750075 0 0 0 0.75,-0.75 V 13.5 a 0.750075,0.750075 0 0 0 -0.75,-0.75 z m 2.498047,0 A 0.750075,0.750075 0 0 0 15,13.5 v 0.0078 a 0.750075,0.750075 0 0 0 0.75,0.75 h 0.0078 a 0.750075,0.750075 0 0 0 0.749999,-0.75 V 13.5 a 0.750075,0.750075 0 0 0 -0.749999,-0.75 z m -7.4960937,0.01172 0.7421875,0.742187 -0.7421875,0.742188 -0.7421876,-0.742188 z m 2.4980467,0 0.742188,0.742187 -0.742188,0.742188 -0.742187,-0.742188 z m 2.503906,0 0.742188,0.742187 -0.742188,0.742188 -0.742187,-0.742188 z m 2.498047,0 0.742188,0.742187 -0.742188,0.742188 -0.742187,-0.742188 z M 8.25,15 A 0.750075,0.750075 0 0 0 7.5,15.75 v 0.0078 a 0.750075,0.750075 0 0 0 0.75,0.749999 h 0.00781 a 0.750075,0.750075 0 0 0 0.75,-0.749999 V 15.75 a 0.750075,0.750075 0 0 0 -0.75,-0.75 z m 2.498047,0 a 0.750075,0.750075 0 0 0 -0.7500001,0.75 v 0.0078 a 0.750075,0.750075 0 0 0 0.7500001,0.749999 h 0.0078 a 0.750075,0.750075 0 0 0 0.75,-0.749999 V 15.75 a 0.750075,0.750075 0 0 0 -0.75,-0.75 z m 2.503906,0 a 0.750075,0.750075 0 0 0 -0.75,0.75 v 0.0078 a 0.750075,0.750075 0 0 0 0.75,0.749999 h 0.0078 a 0.750075,0.750075 0 0 0 0.75,-0.749999 V 15.75 a 0.750075,0.750075 0 0 0 -0.75,-0.75 z M 15.75,15 A 0.75,0.75 0 0 0 15,15.75 V 18 A 0.75,0.75 0 0 0 15.75,18.75 0.75,0.75 0 0 0 16.5,18 V 15.75 A 0.75,0.75 0 0 0 15.75,15 Z m -7.4960937,0.01172 0.7421875,0.742187 -0.7421875,0.742188 -0.7421876,-0.742188 z m 2.4980467,0 0.742188,0.742187 -0.742188,0.742188 -0.742187,-0.742188 z m 2.503906,0 0.742188,0.742187 -0.742188,0.742188 -0.742187,-0.742188 z M 8.25,17.25 A 0.750075,0.750075 0 0 0 7.5,18 v 0.0078 a 0.750075,0.750075 0 0 0 0.75,0.75 h 0.00781 a 0.750075,0.750075 0 0 0 0.75,-0.75 V 18 a 0.750075,0.750075 0 0 0 -0.75,-0.75 z m 2.498047,0 A 0.750075,0.750075 0 0 0 9.9980469,18 v 0.0078 a 0.750075,0.750075 0 0 0 0.7500001,0.75 h 0.0078 a 0.750075,0.750075 0 0 0 0.75,-0.75 V 18 a 0.750075,0.750075 0 0 0 -0.75,-0.75 z m 2.503906,0 a 0.750075,0.750075 0 0 0 -0.75,0.75 v 0.0078 a 0.750075,0.750075 0 0 0 0.75,0.75 h 0.0078 a 0.750075,0.750075 0 0 0 0.75,-0.75 V 18 a 0.750075,0.750075 0 0 0 -0.75,-0.75 z m -4.9980467,0.01172 0.7421875,0.742187 -0.7421875,0.742188 -0.7421876,-0.742188 z m 2.4980467,0 0.742188,0.742187 -0.742188,0.742188 -0.742187,-0.742188 z m 2.503906,0 0.742188,0.742187 -0.742188,0.742188 -0.742187,-0.742188 z"
     id="path1" />
</svg>
