<?xml version="1.0" encoding="UTF-8" standalone="no"?>
<svg
   width="24"
   height="24"
   viewBox="0 0 24 24"
   version="1.1"
   xmlns="http://www.w3.org/2000/svg">
  <defs />
  <!-- generic app: rounded square grid (2×2) -->
  <path
     style="fill:currentColor"
     d="M 4,4 A 2,2 0 0 0 2,6 V 10 A 2,2 0 0 0 4,12 H 10 A 2,2 0 0 0 12,10 V 6 A 2,2 0 0 0 10,4 Z M 14,4 A 2,2 0 0 0 12,6 V 10 A 2,2 0 0 0 14,12 H 20 A 2,2 0 0 0 22,10 V 6 A 2,2 0 0 0 20,4 Z M 4,14 A 2,2 0 0 0 2,16 V 18 A 2,2 0 0 0 4,20 H 10 A 2,2 0 0 0 12,18 V 16 A 2,2 0 0 0 10,14 Z M 14,14 A 2,2 0 0 0 12,16 V 18 A 2,2 0 0 0 14,20 H 20 A 2,2 0 0 0 22,18 V 16 A 2,2 0 0 0 20,14 Z" />
</svg>
