<?xml version="1.0" encoding="UTF-8" standalone="no"?>
<svg
   width="24"
   height="24"
   viewBox="0 0 24 24"
   version="1.1"
   xmlns="http://www.w3.org/2000/svg">
  <defs />
  <!-- arrow-down-tray (heroicons style) -->
  <path
     style="fill:currentColor"
     d="M 12,3 A 1,1 0 0 0 11,4 V 12.59 L 8.71,10.29 A 1,1 0 0 0 7.29,11.71 l 4,4 a 1,1 0 0 0 1.42,0 l 4,-4 A 1,1 0 0 0 15.29,10.29 L 13,12.59 V 4 A 1,1 0 0 0 12,3 Z M 5,17 A 1,1 0 0 0 4,18 v 1 A 2,2 0 0 0 6,21 H 18 A 2,2 0 0 0 20,19 V 18 A 1,1 0 0 0 18,18 v 1 H 6 V 18 A 1,1 0 0 0 5,17 Z" />
</svg>
