<?xml version="1.0" encoding="UTF-8" standalone="no"?>
<svg
   width="24"
   height="24"
   viewBox="0 0 24 24"
   version="1.1"
   xmlns="http://www.w3.org/2000/svg">
  <defs />
  <!-- vinyl disc: outer ring + inner circle -->
  <path
     style="fill:currentColor"
     d="M 12,2 C 6.48,2 2,6.48 2,12 2,17.52 6.48,22 12,22 17.52,22 22,17.52 22,12 22,6.48 17.52,2 12,2 Z M 12,4 C 16.42,4 20,7.58 20,12 20,16.42 16.42,20 12,20 7.58,20 4,16.42 4,12 4,7.58 7.58,4 12,4 Z M 12,9 C 10.34,9 9,10.34 9,12 9,13.66 10.34,15 12,15 13.66,15 15,13.66 15,12 15,10.34 13.66,9 12,9 Z" />
</svg>
