<?xml version="1.0" encoding="UTF-8" standalone="no"?>
<svg
   width="24"
   height="24"
   viewBox="0 0 24 24"
   version="1.1"
   id="svg1"
   xmlns="http://www.w3.org/2000/svg">
  <defs id="defs1" />
  <!-- window outline: rounded rect with a title-bar divider line -->
  <path
     style="fill:currentColor"
     d="M 4,4 A 2,2 0 0 0 2,6 V 18 A 2,2 0 0 0 4,20 H 20 A 2,2 0 0 0 22,18 V 6 A 2,2 0 0 0 20,4 Z M 4,5.5 H 20 A 0.5,0.5 0 0 1 20.5,6 V 9.5 H 3.5 V 6 A 0.5,0.5 0 0 1 4,5.5 Z M 3.5,11 H 20.5 V 18 A 0.5,0.5 0 0 1 20,18.5 H 4 A 0.5,0.5 0 0 1 3.5,18 Z" />
</svg>
